#!OML:ASF E:\motion texture\Top Level 1\Subject 1\Session 1\male.ASF
:FULLY-SPECIFIED
:DEGREES
637
root -42.7258 18.0973 1.60518 805.789 -81.978 -803.71
lowerback -4.34311 0.452678 7.69773
upperback -3.62799 0.198814 4.40913
thorax -1.30503 -0.0869352 0.254721
lowerneck -0.0886172 -3.16224 -7.79034
upperneck -30.9873 -4.08255 10.469
head -9.252 -2.65606 5.4503
rclavicle 4.17448e-015 1.35174e-014
rhumerus 47.4429 9.12733 -46.9637
rradius 83.5283
rwrist 8.76623
rhand -18.4793 -19.1188
rfingers 7.12502
rthumb 7.8077 -408.955
lclavicle 4.17448e-015 1.35174e-014
lhumerus -6.43033 -22.9233 92.0521
lradius 71.4839
lwrist -6.54461
lhand -14.1383 22.8692
lfingers 7.12502
lthumb 11.9957 52.5054
rfemur -8.42343 5.08336 33.0848
rtibia 17.6351
rfoot -6.60764 -9.4598
rtoes 20.4892
lfemur -23.2718 3.44525 -8.40203
ltibia 64.6024
lfoot -1.97241 -1.65883
ltoes -13.6935
638
root -42.8524 18.1024 1.5938 808.734 -81.9239 -806.588
lowerback -4.40205 0.553775 7.82808
upperback -3.59681 0.316623 4.44612
thorax -1.23374 -0.0292286 0.225093
lowerneck -0.00524991 -3.0601 -7.94877
upperneck -31.3199 -3.93791 10.6348
head -9.39481 -2.59637 5.55695
rclavicle 7.05686e-015 -4.13472e-014
rhumerus 47.5983 9.11637 -46.5131
rradius 84.0797
rwrist 9.22322
rhand -17.9717 -18.3801
rfingers 7.12502
rthumb 8.29762 -408.197
lclavicle 7.05686e-015 -4.13472e-014
lhumerus -5.3885 -23.5663 91.4244
lradius 72.7758
lwrist -6.4255
lhand -13.8883 22.7531
lfingers 7.12502
lthumb 12.2368 52.3751
rfemur -7.82902 5.14741 33.3029
rtibia 17.31
rfoot -6.8531 -9.20523
rtoes 20.245
lfemur -24.2766 3.73027 -8.35095
ltibia 64.0263
lfoot -2.80991 -1.28326
ltoes -13.998
639
root -42.9759 18.1065 1.58283 811.638 -81.8782 -809.44
lowerback -4.36609 0.622033 7.93779
upperback -3.63739 0.40732 4.4722
thorax -1.29141 0.0099342 0.194852
lowerneck -0.127023 -3.0727 -7.67621
upperneck -31.2645 -4.01259 10.3066
head -9.3647 -2.62857 5.38751
rclavicle 4.67144e-015 -1.82882e-014
rhumerus 47.8226 9.22254 -46.1203
rradius 84.5933
rwrist 9.44991
rhand -17.2698 -18.7809
rfingers 7.12502
rthumb 8.97499 -408.57
lclavicle 4.67144e-015 -1.82882e-014
lhumerus -4.38319 -24.1097 90.7296
lradius 73.9889
lwrist -6.44521
lhand -13.8769 22.4728
lfingers 7.12502
lthumb 12.2478 52.0941
rfemur -7.2476 5.14769 33.4934
rtibia 17.0839
rfoot -7.13161 -8.94174
rtoes 19.6196
lfemur -25.2152 3.98463 -8.32043
ltibia 63.2932
lfoot -3.7654 -0.771311
ltoes -14.2357
640
root -43.0941 18.1104 1.57408 814.369 -81.7966 -812.081
lowerback -4.25274 0.690178 8.12064
upperback -3.68294 0.50622 4.47182
thorax -1.39665 0.0501485 0.0967212
lowerneck 0.0534782 -2.91732 -7.87832
upperneck -31.6499 -3.77145 10.5971
head -9.55013 -2.5332 5.54894
rclavicle 0 -1.51076e-014
rhumerus 48.1178 9.26411 -45.7591
rradius 84.976
rwrist 9.73764
rhand -17.0631 -18.9671
rfingers 7.12502
rthumb 9.17449 -408.747
lclavicle 0 -1.51076e-014
lhumerus -3.26175 -24.6387 89.8936
lradius 75.304
lwrist -6.3306
lhand -13.7044 22.3618
lfingers 7.12502
lthumb 12.4141 51.9732
rfemur -6.77126 5.22243 33.6688
rtibia 16.8621
rfoot -7.38551 -8.70007
rtoes 19.5904
lfemur -26.1949 4.17898 -8.28285
ltibia 62.4575
lfoot -4.45288 -0.30174
ltoes -14.4736
641
root -43.2173 18.1121 1.56299 817.436 -81.6894 -815.08
lowerback -4.21404 0.76564 8.23379
upperback -3.692 0.604813 4.51043
thorax -1.42209 0.0947376 0.0774506
lowerneck -0.153758 -2.88375 -7.73158
upperneck -31.6166 -3.74421 10.4638
head -9.51125 -2.52518 5.46466
rclavicle -4.37326e-015 5.00937e-014
rhumerus 48.4746 9.21625 -45.356
rradius 85.3488
rwrist 9.85471
rhand -17.5228 -17.8039
rfingers 7.12502
rthumb 8.73086 -407.603
lclavicle -4.37326e-015 5.00937e-014
lhumerus -2.03962 -25.061 89.028
lradius 76.562
lwrist -6.37973
lhand -13.6989 22.2723
lfingers 7.12502
lthumb 12.4195 51.8834
rfemur -6.22967 5.42124 33.8723
rtibia 16.6148
rfoot -7.65067 -8.54809
rtoes 19.2538
lfemur -27.0578 4.43589 -8.18991
ltibia 61.4695
lfoot -5.02191 0.163828
ltoes -14.5307
642
root -43.3388 18.1133 1.55715 820.174 -81.6714 -817.745
lowerback -4.21158 0.830323 8.29649
upperback -3.72316 0.689291 4.50619
thorax -1.45063 0.132899 0.0413594
lowerneck 0.0648894 -2.77889 -7.7493
upperneck -31.8898 -3.60676 10.5294
head -9.66599 -2.47331 5.51149
rclavicle -1.88845e-015 -1.98785e-014
rhumerus 48.8361 9.14862 -45.0411
rradius 85.6241
rwrist 9.87428
rhand -17.308 -18.1501
rfingers 7.12502
rthumb 8.93812 -407.941
lclavicle -1.88845e-015 -1.98785e-014
lhumerus -0.808972 -25.4777 88.1173
lradius 77.8142
lwrist -6.40756
lhand -13.8985 22.1828
lfingers 7.12502
lthumb 12.227 51.8054
rfemur -5.71383 5.45852 33.9138
rtibia 16.3904
rfoot -7.87541 -8.29174
rtoes 19.3133
lfemur -27.6533 4.52743 -8.24318
ltibia 59.9674
lfoot -5.4132 0.709138
ltoes -14.0141
643
root -43.4592 18.1132 1.54768 822.895 -81.5193 -820.358
lowerback -4.18586 0.883743 8.40914
upperback -3.74658 0.757456 4.55529
thorax -1.48538 0.161374 0.0324023
lowerneck 0.0592045 -2.67479 -7.64903
upperneck -32.074 -3.48761 10.4547
head -9.75261 -2.42837 5.47394
rclavicle -4.17448e-015 4.45278e-014
rhumerus 49.2891 9.02282 -44.8236
rradius 86.0816
rwrist 9.39291
rhand -16.4554 -18.8788
rfingers 7.12502
rthumb 9.76078 -408.633
lclavicle -4.17448e-015 4.45278e-014
lhumerus 0.566252 -25.7641 87.1061
lradius 79.039
lwrist -6.56627
lhand -14.0651 22.1906
lfingers 7.12502
lthumb 12.0664 51.8227
rfemur -5.29031 5.60578 34.1073
rtibia 16.265
rfoot -8.16309 -8.08451
rtoes 18.6147
lfemur -28.5626 4.75094 -8.12776
ltibia 58.9215
lfoot -5.98684 1.19997
ltoes -14.145
644
root -43.5779 18.1123 1.53834 825.757 -81.4419 -823.124
lowerback -4.11138 0.94348 8.44724
upperback -3.80655 0.847205 4.55343
thorax -1.58395 0.199726 0.011758
lowerneck 0.12718 -2.58391 -7.55388
upperneck -32.2136 -3.37267 10.4264
head -9.83377 -2.38807 5.45319
rclavicle -1.2921e-015 2.46493e-014
rhumerus 49.6961 8.87091 -44.5974
rradius 86.3771
rwrist 9.38844
rhand -16.3792 -18.9357
rfingers 7.12502
rthumb 9.83432 -408.686
lclavicle -1.2921e-015 2.46493e-014
lhumerus 1.9345 -26.0199 86.0465
lradius 80.2323
lwrist -6.71994
lhand -14.2523 22.2093
lfingers 7.12502
lthumb 11.8858 51.8519
rfemur -4.84961 5.78666 34.185
rtibia 16.1209
rfoot -8.44373 -7.96766
rtoes 18.782
lfemur -29.2333 4.92391 -8.09629
ltibia 57.4619
lfoot -6.54372 1.74361
ltoes -14.7286
645
root -43.6986 18.1112 1.53209 828.023 -81.269 -825.253
lowerback -4.16481 0.99612 8.60156
upperback -3.81424 0.90249 4.57847
thorax -1.5578 0.222897 -0.0446759
lowerneck 0.264372 -2.48177 -7.65118
upperneck -32.5009 -3.20603 10.6519
head -9.9763 -2.33248 5.56956
rclavicle 4.47266e-015 -3.65764e-014
rhumerus 50.2381 8.5985 -44.3734
rradius 86.6914
rwrist 9.35128
rhand -16.3077 -19.3377
rfingers 7.12502
rthumb 9.90333 -409.085
lclavicle 4.47266e-015 -3.65764e-014
lhumerus 3.51929 -26.1929 84.8756
lradius 81.361
lwrist -6.78017
lhand -14.6543 22.4991
lfingers 7.12502
lthumb 11.4982 52.1637
rfemur -4.4876 5.80307 34.3338
rtibia 16.0406
rfoot -8.76166 -7.71428
rtoes 18.6976
lfemur -29.8521 4.99763 -7.95229
ltibia 55.837
lfoot -6.92446 2.28679
ltoes -14.9453
646
root -43.8226 18.108 1.52297 830.557 -81.2286 -827.668
lowerback -4.2063 1.03172 8.55795
upperback -3.83734 0.946187 4.57219
thorax -1.55606 0.244457 -0.0253638
lowerneck 0.167606 -2.44015 -7.49115
upperneck -32.5277 -3.15943 10.5724
head -9.97973 -2.32467 5.50864
rclavicle -9.93923e-017 -8.74653e-015
rhumerus 50.7527 8.29493 -44.2323
rradius 87.0538
rwrist 9.1984
rhand -15.9479 -19.9466
rfingers 7.12502
rthumb 10.2504 -409.677
lclavicle -9.93923e-017 -8.74653e-015
lhumerus 5.09948 -26.2495 83.6967
lradius 82.4718
lwrist -6.78451
lhand -14.5769 22.4362
lfingers 7.12502
lthumb 11.5728 52.0967
rfemur -4.04119 6.00948 34.3457
rtibia 15.8845
rfoot -9.06147 -7.64161
rtoes 18.4506
lfemur -30.3393 5.06299 -7.95849
ltibia 54.0335
lfoot -7.26523 2.92708
ltoes -15.3786
647
root -43.9359 18.1062 1.51412 832.756 -81.004 -829.657
lowerback -4.21982 1.10527 8.64556
upperback -3.87876 1.03678 4.64684
thorax -1.58649 0.283734 0.00718185
lowerneck 0.137784 -2.33396 -7.59399
upperneck -32.6795 -2.99621 10.7146
head -10.043 -2.25827 5.58072
rclavicle 1.49089e-015 -2.54444e-014
rhumerus 51.3012 7.86045 -44.0318
rradius 87.2927
rwrist 9.15915
rhand -16.3657 -19.0191
rfingers 7.12502
rthumb 9.84733 -408.769
lclavicle 1.49089e-015 -2.54444e-014
lhumerus 6.84535 -26.2761 82.4927
lradius 83.5214
lwrist -6.60446
lhand -14.618 22.3704
lfingers 7.12502
lthumb 11.5332 52.0331
rfemur -3.87329 6.17712 34.5306
rtibia 15.9641
rfoot -9.39679 -7.50956
rtoes 18.3092
lfemur -30.9341 5.13261 -7.71603
ltibia 52.1886
lfoot -7.67388 3.60718
ltoes -16.1407
648
root -44.0626 18.102 1.50637 834.877 -80.9754 -831.645
lowerback -4.13668 1.10721 8.65777
upperback -4.06018 1.06147 4.57718
thorax -1.81982 0.282169 -0.0718099
lowerneck 0.383535 -2.2432 -7.53456
upperneck -32.8243 -2.84293 10.8549
head -10.1583 -2.21431 5.63197
rclavicle 9.54166e-015 -5.1684e-014
rhumerus 51.6517 7.62192 -44.0938
rradius 87.4905
rwrist 9.13957
rhand -16.7895 -18.1973
rfingers 7.12502
rthumb 9.43842 -407.966
lclavicle 9.54166e-015 -5.1684e-014
lhumerus 8.2099 -26.3219 81.2356
lradius 84.557
lwrist -6.486
lhand -14.9484 22.429
lfingers 7.12502
lthumb 11.2145 52.1093
rfemur -3.47957 6.26469 34.49
rtibia 15.8751
rfoot -9.72214 -7.38603
rtoes 18.0899
lfemur -31.268 5.04673 -7.70986
ltibia 50.1162
lfoot -7.88878 4.42462
ltoes -16.2841
649
root -44.1832 18.0973 1.49929 836.934 -80.9145 -833.532
lowerback -4.19182 1.1364 8.62428
upperback -4.06977 1.09409 4.56023
thorax -1.79675 0.299199 -0.0693293
lowerneck 0.180573 -2.18842 -7.38886
upperneck -32.8299 -2.76567 10.8168
head -10.1346 -2.19516 5.58193
rclavicle -5.26779e-015 -5.32743e-014
rhumerus 52.2714 7.06632 -44.0077
rradius 87.8287
rwrist 8.95079
rhand -15.7816 -19.81
rfingers 7.12502
rthumb 10.4108 -409.532
lclavicle -5.26779e-015 -5.32743e-014
lhumerus 10.0448 -26.2028 79.878
lradius 85.4902
lwrist -6.2721
lhand -15.1117 22.4596
lfingers 7.12502
lthumb 11.057 52.1484
rfemur -3.20011 6.32999 34.4531
rtibia 15.8772
rfoot -10.0677 -7.23967
rtoes 17.8973
lfemur -31.583 4.90762 -7.64902
ltibia 47.9262
lfoot -8.03167 5.20002
ltoes -16.0716
